/* XPM */
static char * closeI_xpm[] = {
"30 68 65 1",
" 	c #ECECEC",
".	c #D4D4D4",
"+	c #A2A2A2",
"@	c #9A9A9A",
"#	c #A3A3A3",
"$	c #DADADA",
"%	c #D9D9D9",
"&	c #E7E7E7",
"*	c #B7B7B7",
"=	c #9F9F9F",
"-	c #E3E3E3",
";	c #E4E4E4",
">	c #A0A0A0",
",	c #B5B5B5",
"'	c #909090",
")	c #A1A1A1",
"!	c #9D9D9D",
"~	c #D5D5D5",
"{	c #E9E9E9",
"]	c #BDBDBD",
"^	c #E0E0E0",
"/	c #DFDFDF",
"(	c #C4C4C4",
"_	c #8F8F8F",
":	c #868686",
"<	c #DEDEDE",
"[	c #B0B0B0",
"}	c #B9B9B9",
"|	c #AFAFAF",
"1	c #C2C2C2",
"2	c #C1C1C1",
"3	c #C8C8C8",
"4	c #CACACA",
"5	c #DDDDDD",
"6	c #858585",
"7	c #CDCDCD",
"8	c #CECECE",
"9	c #DCDCDC",
"0	c #878787",
"a	c #C6C6C6",
"b	c #CFCFCF",
"c	c #757575",
"d	c #4C4C4C",
"e	c #4F4F4F",
"f	c #727272",
"g	c #DBDBDB",
"h	c #4E4E4E",
"i	c #333333",
"j	c #4D4D4D",
"k	c #4A4A4A",
"l	c #C0C0C0",
"m	c #D0D0D0",
"n	c #C3C3C3",
"o	c #888888",
"p	c #D1D1D1",
"q	c #767676",
"r	c #505050",
"s	c #898989",
"t	c #D2D2D2",
"u	c #D8D8D8",
"v	c #D7D7D7",
"w	c #939393",
"x	c #C5C5C5",
"y	c #D6D6D6",
"z	c #AAAAAA",
"                              ",
"                              ",
"                              ",
"                              ",
"   .+@@@@@@@@@@@@@@@@@@@@#.   ",
"   #$                    %#   ",
"   @                      @   ",
"   @                      @   ",
"   @                      @   ",
"   @                      @   ",
"   @                      @   ",
"   @        &    &        @   ",
"   @       *=-  ;>,       @   ",
"   @      &>'>;;>'=&      @   ",
"   @       ;>'>>'=;       @   ",
"   @        ;)''!-        @   ",
"   @        ;>''!-        @   ",
"   @       ;>'>>'=;       @   ",
"   @      &>'>;;>'=&      @   ",
"   @       *=-  ;),       @   ",
"   @        &    &        @   ",
"   @                      @   ",
"   @                      @   ",
"   @                      @   ",
"   @                      @   ",
"   @                      @   ",
"   #%                    %#   ",
"   .#@@@@@@@@@@@@@@@@@@@@#~   ",
"                              ",
"                              ",
"                              ",
"                              ",
"{{{{{{{{{{{{{{{{{{{{{{{{{{{{{{",
"]]]]]]]]]]]]]]]]]]]]]]]]]]]]]]",
"^^^^^^^^^^^^^^^^^^^^^^^^^^^^^^",
"^^^^^^^^^^^^^^^^^^^^^^^^^^^^^^",
"^^^^^^^^^^^^^^^^^^^^^^^^^^^^^^",
"//////////////////////////////",
"///(_::::::::::::::::::::_(///",
"<<<_[}}}}}}}}}}}}}}}}}}}}|_<<<",
"<<<:1((((((((((((((((((((2:<<<",
"<<<:3444444444444444444443:<<<",
"555677777777777777777777776555",
"555:8888888888888888888888:555",
"999088888888888888888888880999",
"999088888887a8888a788888880999",
"9990bbbbbb8cd2bb1ef8bbbbbb0999",
"ggg0bbbbbbahie22eijabbbbbb0ggg",
"ggg0bbbbbbb1eihhij2bbbbbbb0ggg",
"$$$0bbbbbbbb1eiiklbbbbbbbb0$$$",
"$$$0mmmmmmmmneiik2mmmmmmmm0$$$",
"$$$0mmmmmmmneihhij1mmmmmmm0$$$",
"$$$opppppp3hienneij3ppppppo$$$",
"%%%0mmmmmmbqd2mmnrfbmmmmmm0%%%",
"%%%0mmmmmmmb3mmmm3bmmmmmmm0%%%",
"%%%oppppppppppppppppppppppo%%%",
"%%%oppppppppppppppppppppppo%%%",
"%%%stttttttttttttttttttttts%%%",
"uuuottttttttttttttttttttttouuu",
"uuuottttttttttttttttttttttouuu",
"vvvw2ttttttttttttttttttttlwvvv",
"vvv(wsssssssssssssssssssswxvvv",
"vvvu$gggggggggggggggggggg$uvvv",
"yyyyyyyyyyyyyyyyyyyyyyyyyyyyyy",
"yyyyyyyyyyyyyyyyyyyyyyyyyyyyyy",
"~~~~~~~~~~~~~~~~~~~~~~~~~~~~~~",
"tttttttttttttttttttttttttttttt",
"zzzzzzzzzzzzzzzzzzzzzzzzzzzzzz"};
