/* XPM */
static char * closeA_xpm[] = {
"30 68 68 1",
" 	c #E0E0E0",
".	c #DFDFDF",
"+	c #C8C8C8",
"@	c #999999",
"#	c #929292",
"$	c #9A9A9A",
"%	c #DEDEDE",
"&	c #CFCFCF",
"*	c #CECECE",
"=	c #919191",
"-	c #DDDDDD",
";	c #909090",
">	c #DCDCDC",
",	c #8F8F8F",
"'	c #DBDBDB",
")	c #D3D3D3",
"!	c #7B7B7B",
"~	c #4E4E4E",
"{	c #CCCCCC",
"]	c #515151",
"^	c #777777",
"/	c #D1D1D1",
"(	c #505050",
"_	c #333333",
":	c #4F4F4F",
"<	c #CDCDCD",
"[	c #DADADA",
"}	c #8E8E8E",
"|	c #4B4B4B",
"1	c #CACACA",
"2	c #CBCBCB",
"3	c #D0D0D0",
"4	c #D9D9D9",
"5	c #8D8D8D",
"6	c #D8D8D8",
"7	c #7A7A7A",
"8	c #767676",
"9	c #8C8C8C",
"0	c #D6D6D6",
"a	c #8B8B8B",
"b	c #D5D5D5",
"c	c #888888",
"d	c #D2D2D2",
"e	c #D7D7D7",
"f	c #BFBFBF",
"g	c #BEBEBE",
"h	c #B4B4B4",
"i	c #858585",
"j	c #C4C4C4",
"k	c #C2C2C2",
"l	c #AAAAAA",
"m	c #868686",
"n	c #B0B0B0",
"o	c #B9B9B9",
"p	c #AFAFAF",
"q	c #C1C1C1",
"r	c #878787",
"s	c #C6C6C6",
"t	c #757575",
"u	c #4C4C4C",
"v	c #727272",
"w	c #4D4D4D",
"x	c #4A4A4A",
"y	c #C0C0C0",
"z	c #C3C3C3",
"A	c #898989",
"B	c #939393",
"C	c #C5C5C5",
"                              ",
"                              ",
"                              ",
"..............................",
"...+@####################$+...",
"%%%$&                    *$%%%",
"%%%=......................=%%%",
"%%%=......................=%%%",
"---;%%%%%%%%%%%%%%%%%%%%%%;---",
"---;----------------------;---",
">>>,>>>>>>>>>>>>>>>>>>>>>>,>>>",
">>>,>>>>>>>')>>>>)'>>>>>>>,>>>",
">>>,>>>>>>'!~{>>*]^'>>>>>>,>>>",
"''',''''''/(_]{{]_:/'''''','''",
"''','''''''<]_((_:{''''''','''",
"[[[}[[[[[[[[{]__|1[[[[[[[[}[[[",
"[[[}[[[[[[[[{(__|1[[[[[[[[}[[[",
"[[[}[[[[[[[{(_((_:2[[[[[[[}[[[",
"[[[}[[[[[[3(_(22(_:3[[[[[[}[[[",
"444544444467~1442]864444445444",
"444544444446344443644444445444",
"444966666666666666666666669444",
"444900000000000000000000009444",
"444abbbbbbbbbbbbbbbbbbbbbba444",
"666cddddddddddddddddddddddc666",
"666c//////////////////////c666",
"eee}f&&&&&&&&&&&&&&&&&&&&g}eee",
"eeeh9iiiiiiiiiiiiiiiiiiii9heee",
"eee/jkkkkkkkkkkkkkkkkkkkkj/eee",
"000000000000000000000000000000",
"000000000000000000000000000000",
"bbbbbbbbbbbbbbbbbbbbbbbbbbbbbb",
"//////////////////////////////",
"llllllllllllllllllllllllllllll",
"                              ",
"                              ",
"                              ",
"..............................",
"...j,mmmmmmmmmmmmmmmmmmmm,j...",
"%%%,noooooooooooooooooooop,%%%",
"%%%mkjjjjjjjjjjjjjjjjjjjjqm%%%",
"%%%m+11111111111111111111+m%%%",
"---i<<<<<<<<<<<<<<<<<<<<<<i---",
"---m**********************m---",
">>>r**********************r>>>",
">>>r*******<s****s<*******r>>>",
">>>r&&&&&&*tuq&&k:v*&&&&&&r>>>",
"'''r&&&&&&s~_:qq:_ws&&&&&&r'''",
"'''r&&&&&&&k:_~~_wq&&&&&&&r'''",
"[[[r&&&&&&&&k:__xy&&&&&&&&r[[[",
"[[[r33333333z:__xq33333333r[[[",
"[[[r3333333z:_~~_wk3333333r[[[",
"[[[c//////+~_:zz:_w+//////c[[[",
"444r333333&8uq33z(v&333333r444",
"444r3333333&+3333+&3333333r444",
"444c//////////////////////c444",
"444c//////////////////////c444",
"444AddddddddddddddddddddddA444",
"666cddddddddddddddddddddddc666",
"666cddddddddddddddddddddddc666",
"eeeBqddddddddddddddddddddyBeee",
"eeejBAAAAAAAAAAAAAAAAAAAABCeee",
"eee6[''''''''''''''''''''[6eee",
"000000000000000000000000000000",
"000000000000000000000000000000",
"bbbbbbbbbbbbbbbbbbbbbbbbbbbbbb",
"dddddddddddddddddddddddddddddd",
"llllllllllllllllllllllllllllll"};
