/* XPM */
static char * depthI_xpm[] = {
"30 68 61 1",
" 	c #ECECEC",
".	c #D4D4D4",
"+	c #A2A2A2",
"@	c #9A9A9A",
"#	c #A3A3A3",
"$	c #DADADA",
"%	c #D9D9D9",
"&	c #E6E6E6",
"*	c #DCDCDC",
"=	c #DBDBDB",
"-	c #E4E4E4",
";	c #B9B9B9",
">	c #B1B1B1",
",	c #BABABA",
"'	c #D1D1D1",
")	c #B0B0B0",
"!	c #D0D0D0",
"~	c #D2D2D2",
"{	c #E7E7E7",
"]	c #D5D5D5",
"^	c #E9E9E9",
"/	c #BDBDBD",
"(	c #E0E0E0",
"_	c #DFDFDF",
":	c #C4C4C4",
"<	c #8F8F8F",
"[	c #868686",
"}	c #DEDEDE",
"|	c #AFAFAF",
"1	c #C2C2C2",
"2	c #C1C1C1",
"3	c #C8C8C8",
"4	c #CACACA",
"5	c #DDDDDD",
"6	c #858585",
"7	c #CDCDCD",
"8	c #CECECE",
"9	c #878787",
"0	c #CFCFCF",
"a	c #B2B2B2",
"b	c #C5C5C5",
"c	c #C9C9C9",
"d	c #5C5C5C",
"e	c #3A3A3A",
"f	c #ADADAD",
"g	c #383838",
"h	c #5F5F5F",
"i	c #333333",
"j	c #AEAEAE",
"k	c #9C9C9C",
"l	c #9B9B9B",
"m	c #9D9D9D",
"n	c #888888",
"o	c #373737",
"p	c #898989",
"q	c #D8D8D8",
"r	c #D7D7D7",
"s	c #939393",
"t	c #C0C0C0",
"u	c #D6D6D6",
"v	c #AAAAAA",
"                              ",
"                              ",
"                              ",
"                              ",
"   .+@@@@@@@@@@@@@@@@@@@@#.   ",
"   #$                    %#   ",
"   @                      @   ",
"   @                      @   ",
"   @                      @   ",
"   @                      @   ",
"   @                      @   ",
"   @                      @   ",
"   @       &*    =&       @   ",
"   @      -;>$  %>,-      @   ",
"   @       ')>%$>)'       @   ",
"   @        !)>>)~        @   ",
"   @         '))'         @   ",
"   @          !~          @   ",
"   @      {        {      @   ",
"   @       )))))))>       @   ",
"   @       )))))))>       @   ",
"   @                      @   ",
"   @                      @   ",
"   @                      @   ",
"   @                      @   ",
"   @                      @   ",
"   #%                    %#   ",
"   .#@@@@@@@@@@@@@@@@@@@@#]   ",
"                              ",
"                              ",
"                              ",
"                              ",
"^^^^^^^^^^^^^^^^^^^^^^^^^^^^^^",
"//////////////////////////////",
"((((((((((((((((((((((((((((((",
"((((((((((((((((((((((((((((((",
"((((((((((((((((((((((((((((((",
"______________________________",
"___:<[[[[[[[[[[[[[[[[[[[[<:___",
"}}}<);;;;;;;;;;;;;;;;;;;;|<}}}",
"}}}[1::::::::::::::::::::2[}}}",
"}}}[3444444444444444444443[}}}",
"555677777777777777777777776555",
"555[8888888888888888888888[555",
"***988888888888888888888889***",
"***988888888888888888888889***",
"***90000000:a0000)b00000009***",
"===9000000cde|00fgh40000009===",
"===90000000@igfjeik00000009===",
"$$$900000000@iegik000000009$$$",
"$$$9!!!!!!!!!liim!!!!!!!!!9$$$",
"$$$9!!!!!!!!!!lm!!!!!!!!!!9$$$",
"$$$n''''''''''''''''''''''n$$$",
"%%%9!!!!!!!iiiiiiio!!!!!!!9%%%",
"%%%9!!!!!!!iiiiiiio!!!!!!!9%%%",
"%%%n''''''''''''''''''''''n%%%",
"%%%n''''''''''''''''''''''n%%%",
"%%%p~~~~~~~~~~~~~~~~~~~~~~p%%%",
"qqqn~~~~~~~~~~~~~~~~~~~~~~nqqq",
"qqqn~~~~~~~~~~~~~~~~~~~~~~nqqq",
"rrrs2~~~~~~~~~~~~~~~~~~~~tsrrr",
"rrr:sppppppppppppppppppppsbrrr",
"rrrq$====================$qrrr",
"uuuuuuuuuuuuuuuuuuuuuuuuuuuuuu",
"uuuuuuuuuuuuuuuuuuuuuuuuuuuuuu",
"]]]]]]]]]]]]]]]]]]]]]]]]]]]]]]",
"~~~~~~~~~~~~~~~~~~~~~~~~~~~~~~",
"vvvvvvvvvvvvvvvvvvvvvvvvvvvvvv"};
