/* XPM */
static char * depthA_xpm[] = {
"30 68 73 1",
" 	c #E0E0E0",
".	c #DFDFDF",
"+	c #C8C8C8",
"@	c #999999",
"#	c #929292",
"$	c #9A9A9A",
"%	c #DEDEDE",
"&	c #CFCFCF",
"*	c #CECECE",
"=	c #919191",
"-	c #DDDDDD",
";	c #909090",
">	c #DCDCDC",
",	c #8F8F8F",
"'	c #D0D0D0",
")	c #BDBDBD",
"!	c #BBBBBB",
"~	c #D2D2D2",
"{	c #DBDBDB",
"]	c #D5D5D5",
"^	c #606060",
"/	c #3B3B3B",
"(	c #B9B9B9",
"_	c #B6B6B6",
":	c #393939",
"<	c #636363",
"[	c #D6D6D6",
"}	c #A3A3A3",
"|	c #333333",
"1	c #B8B8B8",
"2	c #A5A5A5",
"3	c #DADADA",
"4	c #8E8E8E",
"5	c #A2A2A2",
"6	c #A4A4A4",
"7	c #D9D9D9",
"8	c #8D8D8D",
"9	c #373737",
"0	c #8C8C8C",
"a	c #D8D8D8",
"b	c #8B8B8B",
"c	c #888888",
"d	c #D1D1D1",
"e	c #D7D7D7",
"f	c #BFBFBF",
"g	c #BEBEBE",
"h	c #B4B4B4",
"i	c #858585",
"j	c #C4C4C4",
"k	c #C2C2C2",
"l	c #AAAAAA",
"m	c #868686",
"n	c #B0B0B0",
"o	c #AFAFAF",
"p	c #C1C1C1",
"q	c #CACACA",
"r	c #CDCDCD",
"s	c #878787",
"t	c #B2B2B2",
"u	c #C5C5C5",
"v	c #C9C9C9",
"w	c #5C5C5C",
"x	c #3A3A3A",
"y	c #ADADAD",
"z	c #383838",
"A	c #5F5F5F",
"B	c #AEAEAE",
"C	c #9C9C9C",
"D	c #9B9B9B",
"E	c #9D9D9D",
"F	c #898989",
"G	c #939393",
"H	c #C0C0C0",
"                              ",
"                              ",
"                              ",
"..............................",
"...+@####################$+...",
"%%%$&                    *$%%%",
"%%%=......................=%%%",
"%%%=......................=%%%",
"---;%%%%%%%%%%%%%%%%%%%%%%;---",
"---;----------------------;---",
">>>,>>>>>>>>>>>>>>>>>>>>>>,>>>",
">>>,>>>>>>>>>>>>>>>>>>>>>>,>>>",
">>>,>>>>>>>')>>>>!~>>>>>>>,>>>",
"{{{,{{{{{{]^/({{_:<[{{{{{{,{{{",
"{{{,{{{{{{{}|:_1/|2{{{{{{{,{{{",
"3334333333335|/:|6333333334333",
"33343333333335||63333333334333",
"333433333333335633333333334333",
"333433333333333333333333334333",
"77787777777|||||||977777778777",
"77787777777|||||||977777778777",
"7770aaaaaaaaaaaaaaaaaaaaaa0777",
"7770[[[[[[[[[[[[[[[[[[[[[[0777",
"777b]]]]]]]]]]]]]]]]]]]]]]b777",
"aaac~~~~~~~~~~~~~~~~~~~~~~caaa",
"aaacddddddddddddddddddddddcaaa",
"eee4f&&&&&&&&&&&&&&&&&&&&g4eee",
"eeeh0iiiiiiiiiiiiiiiiiiii0heee",
"eeedjkkkkkkkkkkkkkkkkkkkkjdeee",
"[[[[[[[[[[[[[[[[[[[[[[[[[[[[[[",
"[[[[[[[[[[[[[[[[[[[[[[[[[[[[[[",
"]]]]]]]]]]]]]]]]]]]]]]]]]]]]]]",
"dddddddddddddddddddddddddddddd",
"llllllllllllllllllllllllllllll",
"                              ",
"                              ",
"                              ",
"..............................",
"...j,mmmmmmmmmmmmmmmmmmmm,j...",
"%%%,n((((((((((((((((((((o,%%%",
"%%%mkjjjjjjjjjjjjjjjjjjjjpm%%%",
"%%%m+qqqqqqqqqqqqqqqqqqqq+m%%%",
"---irrrrrrrrrrrrrrrrrrrrrri---",
"---m**********************m---",
">>>s**********************s>>>",
">>>s**********************s>>>",
">>>s&&&&&&&jt&&&&nu&&&&&&&s>>>",
"{{{s&&&&&&vwxo&&yzAq&&&&&&s{{{",
"{{{s&&&&&&&$|zyBx|C&&&&&&&s{{{",
"333s&&&&&&&&$|xz|C&&&&&&&&s333",
"333s'''''''''D||E'''''''''s333",
"333s''''''''''DE''''''''''s333",
"333cddddddddddddddddddddddc333",
"777s'''''''|||||||9'''''''s777",
"777s'''''''|||||||9'''''''s777",
"777cddddddddddddddddddddddc777",
"777cddddddddddddddddddddddc777",
"777F~~~~~~~~~~~~~~~~~~~~~~F777",
"aaac~~~~~~~~~~~~~~~~~~~~~~caaa",
"aaac~~~~~~~~~~~~~~~~~~~~~~caaa",
"eeeGp~~~~~~~~~~~~~~~~~~~~HGeee",
"eeejGFFFFFFFFFFFFFFFFFFFFGueee",
"eeea3{{{{{{{{{{{{{{{{{{{{3aeee",
"[[[[[[[[[[[[[[[[[[[[[[[[[[[[[[",
"[[[[[[[[[[[[[[[[[[[[[[[[[[[[[[",
"]]]]]]]]]]]]]]]]]]]]]]]]]]]]]]",
"~~~~~~~~~~~~~~~~~~~~~~~~~~~~~~",
"llllllllllllllllllllllllllllll"};
