/* XPM */
static char * hideI_xpm[] = {
"30 68 45 1",
" 	c #ECECEC",
".	c #D4D4D4",
"+	c #A2A2A2",
"@	c #9A9A9A",
"#	c #A3A3A3",
"$	c #DADADA",
"%	c #D9D9D9",
"&	c #B0B0B0",
"*	c #E7E7E7",
"=	c #D5D5D5",
"-	c #E9E9E9",
";	c #BDBDBD",
">	c #E0E0E0",
",	c #DFDFDF",
"'	c #C4C4C4",
")	c #8F8F8F",
"!	c #868686",
"~	c #DEDEDE",
"{	c #B9B9B9",
"]	c #AFAFAF",
"^	c #C2C2C2",
"/	c #C1C1C1",
"(	c #C8C8C8",
"_	c #CACACA",
":	c #DDDDDD",
"<	c #858585",
"[	c #CDCDCD",
"}	c #CECECE",
"|	c #DCDCDC",
"1	c #878787",
"2	c #CFCFCF",
"3	c #333333",
"4	c #DBDBDB",
"5	c #D0D0D0",
"6	c #888888",
"7	c #D1D1D1",
"8	c #898989",
"9	c #D2D2D2",
"0	c #D8D8D8",
"a	c #D7D7D7",
"b	c #939393",
"c	c #C0C0C0",
"d	c #C5C5C5",
"e	c #D6D6D6",
"f	c #AAAAAA",
"                              ",
"                              ",
"                              ",
"                              ",
"   .+@@@@@@@@@@@@@@@@@@@@#.   ",
"   #$                    %#   ",
"   @                      @   ",
"   @                      @   ",
"   @                      @   ",
"   @                      @   ",
"   @                      @   ",
"   @                      @   ",
"   @       &&&  &&&       @   ",
"   @      *&&&  &&&*      @   ",
"   @       &&    &&       @   ",
"   @                      @   ",
"   @                      @   ",
"   @       &&    &&       @   ",
"   @      *&&&  &&&*      @   ",
"   @       &&&  &&&       @   ",
"   @                      @   ",
"   @                      @   ",
"   @                      @   ",
"   @                      @   ",
"   @                      @   ",
"   @                      @   ",
"   #%                    %#   ",
"   .#@@@@@@@@@@@@@@@@@@@@#=   ",
"                              ",
"                              ",
"                              ",
"                              ",
"------------------------------",
";;;;;;;;;;;;;;;;;;;;;;;;;;;;;;",
">>>>>>>>>>>>>>>>>>>>>>>>>>>>>>",
">>>>>>>>>>>>>>>>>>>>>>>>>>>>>>",
">>>>>>>>>>>>>>>>>>>>>>>>>>>>>>",
",,,,,,,,,,,,,,,,,,,,,,,,,,,,,,",
",,,')!!!!!!!!!!!!!!!!!!!!)',,,",
"~~~)&{{{{{{{{{{{{{{{{{{{{])~~~",
"~~~!^''''''''''''''''''''/!~~~",
"~~~!(____________________(!~~~",
":::<[[[[[[[[[[[[[[[[[[[[[[<:::",
":::!}}}}}}}}}}}}}}}}}}}}}}!:::",
"|||1}}}}}}}}}}}}}}}}}}}}}}1|||",
"|||1}}}}}}}}}}}}}}}}}}}}}}1|||",
"|||122222223332233322222221|||",
"444122222223332233322222221444",
"444122222223322223322222221444",
"$$$122222222222222222222221$$$",
"$$$155555555555555555555551$$$",
"$$$155555553355553355555551$$$",
"$$$677777773337733377777776$$$",
"%%%155555553335533355555551%%%",
"%%%155555555555555555555551%%%",
"%%%677777777777777777777776%%%",
"%%%677777777777777777777776%%%",
"%%%899999999999999999999998%%%",
"000699999999999999999999996000",
"000699999999999999999999996000",
"aaab/99999999999999999999cbaaa",
"aaa'b88888888888888888888bdaaa",
"aaa0$44444444444444444444$0aaa",
"eeeeeeeeeeeeeeeeeeeeeeeeeeeeee",
"eeeeeeeeeeeeeeeeeeeeeeeeeeeeee",
"==============================",
"999999999999999999999999999999",
"ffffffffffffffffffffffffffffff"};
