/* XPM */
static char * minimizeI_xpm[] = {
"30 68 46 1",
" 	c #ECECEC",
".	c #D4D4D4",
"+	c #A2A2A2",
"@	c #9A9A9A",
"#	c #A3A3A3",
"$	c #DADADA",
"%	c #D9D9D9",
"&	c #E7E7E7",
"*	c #B1B1B1",
"=	c #D5D5D5",
"-	c #E9E9E9",
";	c #BDBDBD",
">	c #E0E0E0",
",	c #DFDFDF",
"'	c #C4C4C4",
")	c #8F8F8F",
"!	c #868686",
"~	c #DEDEDE",
"{	c #B0B0B0",
"]	c #B9B9B9",
"^	c #AFAFAF",
"/	c #C2C2C2",
"(	c #C1C1C1",
"_	c #C8C8C8",
":	c #CACACA",
"<	c #DDDDDD",
"[	c #858585",
"}	c #CDCDCD",
"|	c #CECECE",
"1	c #DCDCDC",
"2	c #878787",
"3	c #CFCFCF",
"4	c #DBDBDB",
"5	c #D0D0D0",
"6	c #888888",
"7	c #D1D1D1",
"8	c #363636",
"9	c #898989",
"0	c #D2D2D2",
"a	c #D8D8D8",
"b	c #D7D7D7",
"c	c #939393",
"d	c #C0C0C0",
"e	c #C5C5C5",
"f	c #D6D6D6",
"g	c #AAAAAA",
"                              ",
"                              ",
"                              ",
"                              ",
"   .+@@@@@@@@@@@@@@@@@@@@#.   ",
"   #$                    %#   ",
"   @                      @   ",
"   @                      @   ",
"   @                      @   ",
"   @                      @   ",
"   @                      @   ",
"   @                      @   ",
"   @                      @   ",
"   @      &        &      @   ",
"   @                      @   ",
"   @                      @   ",
"   @                      @   ",
"   @                      @   ",
"   @      &        &      @   ",
"   @       ********       @   ",
"   @       ********       @   ",
"   @                      @   ",
"   @                      @   ",
"   @                      @   ",
"   @                      @   ",
"   @                      @   ",
"   #%                    %#   ",
"   .#@@@@@@@@@@@@@@@@@@@@#=   ",
"                              ",
"                              ",
"                              ",
"                              ",
"------------------------------",
";;;;;;;;;;;;;;;;;;;;;;;;;;;;;;",
">>>>>>>>>>>>>>>>>>>>>>>>>>>>>>",
">>>>>>>>>>>>>>>>>>>>>>>>>>>>>>",
">>>>>>>>>>>>>>>>>>>>>>>>>>>>>>",
",,,,,,,,,,,,,,,,,,,,,,,,,,,,,,",
",,,')!!!!!!!!!!!!!!!!!!!!)',,,",
"~~~){]]]]]]]]]]]]]]]]]]]]^)~~~",
"~~~!/''''''''''''''''''''(!~~~",
"~~~!_::::::::::::::::::::_!~~~",
"<<<[}}}}}}}}}}}}}}}}}}}}}}[<<<",
"<<<!||||||||||||||||||||||!<<<",
"1112||||||||||||||||||||||2111",
"1112||||||||||||||||||||||2111",
"111233333333333333333333332111",
"444233333333333333333333332444",
"444233333333333333333333332444",
"$$$233333333333333333333332$$$",
"$$$255555555555555555555552$$$",
"$$$255555555555555555555552$$$",
"$$$677777777777777777777776$$$",
"%%%255555558888888855555552%%%",
"%%%255555558888888855555552%%%",
"%%%677777777777777777777776%%%",
"%%%677777777777777777777776%%%",
"%%%900000000000000000000009%%%",
"aaa600000000000000000000006aaa",
"aaa600000000000000000000006aaa",
"bbbc(00000000000000000000dcbbb",
"bbb'c99999999999999999999cebbb",
"bbba$44444444444444444444$abbb",
"ffffffffffffffffffffffffffffff",
"ffffffffffffffffffffffffffffff",
"==============================",
"000000000000000000000000000000",
"gggggggggggggggggggggggggggggg"};
