/* XPM */
static char * restoreA_xpm[] = {
"30 68 37 1",
" 	c #E0E0E0",
".	c #DFDFDF",
"+	c #C4C4C4",
"@	c #8F8F8F",
"#	c #868686",
"$	c #DEDEDE",
"%	c #B0B0B0",
"&	c #B9B9B9",
"*	c #AFAFAF",
"=	c #C2C2C2",
"-	c #C1C1C1",
";	c #C8C8C8",
">	c #CACACA",
",	c #DDDDDD",
"'	c #858585",
")	c #CDCDCD",
"!	c #CECECE",
"~	c #DCDCDC",
"{	c #878787",
"]	c #CFCFCF",
"^	c #333333",
"/	c #DBDBDB",
"(	c #DADADA",
"_	c #D0D0D0",
":	c #888888",
"<	c #D1D1D1",
"[	c #D9D9D9",
"}	c #898989",
"|	c #D2D2D2",
"1	c #D8D8D8",
"2	c #D7D7D7",
"3	c #939393",
"4	c #C0C0C0",
"5	c #C5C5C5",
"6	c #D6D6D6",
"7	c #D5D5D5",
"8	c #AAAAAA",
"                              ",
"                              ",
"                              ",
"..............................",
"...+@####################@+...",
"$$$@%&&&&&&&&&&&&&&&&&&&&*@$$$",
"$$$#=++++++++++++++++++++-#$$$",
"$$$#;>>>>>>>>>>>>>>>>>>>>;#$$$",
",,,'))))))))))))))))))))))',,,",
",,,#!!!!!!!!!!!!!!!!!!!!!!#,,,",
"~~~{!!!!!!!!!!!!!!!!!!!!!!{~~~",
"~~~{!!!!!!!!!!!!!!!!!!!!!!{~~~",
"~~~{]]]]]]]]]]^^]]]]]]]]]]{~~~",
"///{]]]]]]]]]]^^]]]]]]]]]]{///",
"///{]]]]]]]]]]^^]]]]]]]]]]{///",
"((({]]]]]]]^^^^^^^^]]]]]]]{(((",
"((({_______^^^^^^^^_______{(((",
"((({__________^^__________{(((",
"(((:<<<<<<<<<<^^<<<<<<<<<<:(((",
"[[[{__________^^__________{[[[",
"[[[{______________________{[[[",
"[[[:<<<<<<<<<<<<<<<<<<<<<<:[[[",
"[[[:<<<<<<<<<<<<<<<<<<<<<<:[[[",
"[[[}||||||||||||||||||||||}[[[",
"111:||||||||||||||||||||||:111",
"111:||||||||||||||||||||||:111",
"2223-||||||||||||||||||||43222",
"222+3}}}}}}}}}}}}}}}}}}}}35222",
"2221(////////////////////(1222",
"666666666666666666666666666666",
"666666666666666666666666666666",
"777777777777777777777777777777",
"||||||||||||||||||||||||||||||",
"888888888888888888888888888888",
"                              ",
"                              ",
"                              ",
"..............................",
"...+@####################@+...",
"$$$@%&&&&&&&&&&&&&&&&&&&&*@$$$",
"$$$#=++++++++++++++++++++-#$$$",
"$$$#;>>>>>>>>>>>>>>>>>>>>;#$$$",
",,,'))))))))))))))))))))))',,,",
",,,#!!!!!!!!!!!!!!!!!!!!!!#,,,",
"~~~{!!!!!!!!!!!!!!!!!!!!!!{~~~",
"~~~{!!!!!!!!!!!!!!!!!!!!!!{~~~",
"~~~{]]]]]]]]]]^^]]]]]]]]]]{~~~",
"///{]]]]]]]]]]^^]]]]]]]]]]{///",
"///{]]]]]]]]]]^^]]]]]]]]]]{///",
"((({]]]]]]]^^^^^^^^]]]]]]]{(((",
"((({_______^^^^^^^^_______{(((",
"((({__________^^__________{(((",
"(((:<<<<<<<<<<^^<<<<<<<<<<:(((",
"[[[{__________^^__________{[[[",
"[[[{______________________{[[[",
"[[[:<<<<<<<<<<<<<<<<<<<<<<:[[[",
"[[[:<<<<<<<<<<<<<<<<<<<<<<:[[[",
"[[[}||||||||||||||||||||||}[[[",
"111:||||||||||||||||||||||:111",
"111:||||||||||||||||||||||:111",
"2223-||||||||||||||||||||43222",
"222+3}}}}}}}}}}}}}}}}}}}}35222",
"2221(////////////////////(1222",
"666666666666666666666666666666",
"666666666666666666666666666666",
"777777777777777777777777777777",
"||||||||||||||||||||||||||||||",
"888888888888888888888888888888"};
