/* XPM */
static char * restoreI_xpm[] = {
"30 68 30 1",
" 	c #ECECEC",
".	c #C4C4C4",
"+	c #8F8F8F",
"@	c #868686",
"#	c #B0B0B0",
"$	c #B9B9B9",
"%	c #AFAFAF",
"&	c #C2C2C2",
"*	c #C1C1C1",
"=	c #C8C8C8",
"-	c #CACACA",
";	c #858585",
">	c #CDCDCD",
",	c #CECECE",
"'	c #878787",
")	c #CFCFCF",
"!	c #333333",
"~	c #D0D0D0",
"{	c #888888",
"]	c #D1D1D1",
"^	c #898989",
"/	c #D2D2D2",
"(	c #939393",
"_	c #C0C0C0",
":	c #C5C5C5",
"<	c #D8D8D8",
"[	c #DADADA",
"}	c #DBDBDB",
"|	c #E9E9E9",
"1	c #BDBDBD",
"                              ",
"                              ",
"                              ",
"                              ",
"   .+@@@@@@@@@@@@@@@@@@@@+.   ",
"   +#$$$$$$$$$$$$$$$$$$$$%+   ",
"   @&....................*@   ",
"   @=--------------------=@   ",
"   ;>>>>>>>>>>>>>>>>>>>>>>;   ",
"   @,,,,,,,,,,,,,,,,,,,,,,@   ",
"   ',,,,,,,,,,,,,,,,,,,,,,'   ",
"   ',,,,,,,,,,,,,,,,,,,,,,'   ",
"   '))))))))))!!))))))))))'   ",
"   '))))))))))!!))))))))))'   ",
"   '))))))))))!!))))))))))'   ",
"   ')))))))!!!!!!!!)))))))'   ",
"   '~~~~~~~!!!!!!!!~~~~~~~'   ",
"   '~~~~~~~~~~!!~~~~~~~~~~'   ",
"   {]]]]]]]]]]!!]]]]]]]]]]{   ",
"   '~~~~~~~~~~!!~~~~~~~~~~'   ",
"   '~~~~~~~~~~~~~~~~~~~~~~'   ",
"   {]]]]]]]]]]]]]]]]]]]]]]{   ",
"   {]]]]]]]]]]]]]]]]]]]]]]{   ",
"   ^//////////////////////^   ",
"   {//////////////////////{   ",
"   {//////////////////////{   ",
"   (*////////////////////_(   ",
"   .(^^^^^^^^^^^^^^^^^^^^(:   ",
"   <[}}}}}}}}}}}}}}}}}}}}[<   ",
"                              ",
"                              ",
"                              ",
"||||||||||||||||||||||||||||||",
"111111111111111111111111111111",
"                              ",
"                              ",
"                              ",
"                              ",
"   .+@@@@@@@@@@@@@@@@@@@@+.   ",
"   +#$$$$$$$$$$$$$$$$$$$$%+   ",
"   @&....................*@   ",
"   @=--------------------=@   ",
"   ;>>>>>>>>>>>>>>>>>>>>>>;   ",
"   @,,,,,,,,,,,,,,,,,,,,,,@   ",
"   ',,,,,,,,,,,,,,,,,,,,,,'   ",
"   ',,,,,,,,,,,,,,,,,,,,,,'   ",
"   '))))))))))!!))))))))))'   ",
"   '))))))))))!!))))))))))'   ",
"   '))))))))))!!))))))))))'   ",
"   ')))))))!!!!!!!!)))))))'   ",
"   '~~~~~~~!!!!!!!!~~~~~~~'   ",
"   '~~~~~~~~~~!!~~~~~~~~~~'   ",
"   {]]]]]]]]]]!!]]]]]]]]]]{   ",
"   '~~~~~~~~~~!!~~~~~~~~~~'   ",
"   '~~~~~~~~~~~~~~~~~~~~~~'   ",
"   {]]]]]]]]]]]]]]]]]]]]]]{   ",
"   {]]]]]]]]]]]]]]]]]]]]]]{   ",
"   ^//////////////////////^   ",
"   {//////////////////////{   ",
"   {//////////////////////{   ",
"   (*////////////////////_(   ",
"   .(^^^^^^^^^^^^^^^^^^^^(:   ",
"   <[}}}}}}}}}}}}}}}}}}}}[<   ",
"                              ",
"                              ",
"                              ",
"||||||||||||||||||||||||||||||",
"111111111111111111111111111111"};
