/* XPM */
static char * rollupA_xpm[] = {
"30 68 49 1",
" 	c #E0E0E0",
".	c #DFDFDF",
"+	c #C8C8C8",
"@	c #999999",
"#	c #929292",
"$	c #9A9A9A",
"%	c #DEDEDE",
"&	c #CFCFCF",
"*	c #CECECE",
"=	c #919191",
"-	c #DDDDDD",
";	c #909090",
">	c #DCDCDC",
",	c #8F8F8F",
"'	c #333333",
")	c #DBDBDB",
"!	c #DADADA",
"~	c #8E8E8E",
"{	c #D9D9D9",
"]	c #8D8D8D",
"^	c #8C8C8C",
"/	c #D8D8D8",
"(	c #D6D6D6",
"_	c #8B8B8B",
":	c #D5D5D5",
"<	c #888888",
"[	c #D2D2D2",
"}	c #D1D1D1",
"|	c #D7D7D7",
"1	c #BFBFBF",
"2	c #BEBEBE",
"3	c #B4B4B4",
"4	c #858585",
"5	c #C4C4C4",
"6	c #C2C2C2",
"7	c #AAAAAA",
"8	c #868686",
"9	c #B0B0B0",
"0	c #B9B9B9",
"a	c #AFAFAF",
"b	c #C1C1C1",
"c	c #CACACA",
"d	c #CDCDCD",
"e	c #878787",
"f	c #D0D0D0",
"g	c #898989",
"h	c #939393",
"i	c #C0C0C0",
"j	c #C5C5C5",
"                              ",
"                              ",
"                              ",
"..............................",
"...+@####################$+...",
"%%%$&                    *$%%%",
"%%%=......................=%%%",
"%%%=......................=%%%",
"---;%%%%%%%%%%%%%%%%%%%%%%;---",
"---;----------------------;---",
">>>,>>>>>>>>>>>>>>>>>>>>>>,>>>",
">>>,>>>>>>>''''''''>>>>>>>,>>>",
">>>,>>>>>>>''''''''>>>>>>>,>>>",
"))),)))))))))))))))))))))),)))",
"))),)))))))))))))))))))))),)))",
"!!!~!!!!!!!!!!!!!!!!!!!!!!~!!!",
"!!!~!!!!!!!!!!!!!!!!!!!!!!~!!!",
"!!!~!!!!!!!!!!!!!!!!!!!!!!~!!!",
"!!!~!!!!!!!!!!!!!!!!!!!!!!~!!!",
"{{{]{{{{{{{{{{{{{{{{{{{{{{]{{{",
"{{{]{{{{{{{{{{{{{{{{{{{{{{]{{{",
"{{{^//////////////////////^{{{",
"{{{^((((((((((((((((((((((^{{{",
"{{{_::::::::::::::::::::::_{{{",
"///<[[[[[[[[[[[[[[[[[[[[[[<///",
"///<}}}}}}}}}}}}}}}}}}}}}}<///",
"|||~1&&&&&&&&&&&&&&&&&&&&2~|||",
"|||3^44444444444444444444^3|||",
"|||}5666666666666666666665}|||",
"((((((((((((((((((((((((((((((",
"((((((((((((((((((((((((((((((",
"::::::::::::::::::::::::::::::",
"}}}}}}}}}}}}}}}}}}}}}}}}}}}}}}",
"777777777777777777777777777777",
"                              ",
"                              ",
"                              ",
"..............................",
"...5,88888888888888888888,5...",
"%%%,900000000000000000000a,%%%",
"%%%8655555555555555555555b8%%%",
"%%%8+cccccccccccccccccccc+8%%%",
"---4dddddddddddddddddddddd4---",
"---8**********************8---",
">>>e**********************e>>>",
">>>e*******''''''''*******e>>>",
">>>e&&&&&&&''''''''&&&&&&&e>>>",
")))e&&&&&&&&&&&&&&&&&&&&&&e)))",
")))e&&&&&&&&&&&&&&&&&&&&&&e)))",
"!!!e&&&&&&&&&&&&&&&&&&&&&&e!!!",
"!!!effffffffffffffffffffffe!!!",
"!!!effffffffffffffffffffffe!!!",
"!!!<}}}}}}}}}}}}}}}}}}}}}}<!!!",
"{{{effffffffffffffffffffffe{{{",
"{{{effffffffffffffffffffffe{{{",
"{{{<}}}}}}}}}}}}}}}}}}}}}}<{{{",
"{{{<}}}}}}}}}}}}}}}}}}}}}}<{{{",
"{{{g[[[[[[[[[[[[[[[[[[[[[[g{{{",
"///<[[[[[[[[[[[[[[[[[[[[[[<///",
"///<[[[[[[[[[[[[[[[[[[[[[[<///",
"|||hb[[[[[[[[[[[[[[[[[[[[ih|||",
"|||5hgggggggggggggggggggghj|||",
"|||/!))))))))))))))))))))!/|||",
"((((((((((((((((((((((((((((((",
"((((((((((((((((((((((((((((((",
"::::::::::::::::::::::::::::::",
"[[[[[[[[[[[[[[[[[[[[[[[[[[[[[[",
"777777777777777777777777777777"};
