/* XPM */
static char * titleIB_xpm[] = {
"3 34 3 1",
" 	c #ECECEC",
".	c #E9E9E9",
"+	c #BDBDBD",
"   ",
"   ",
"   ",
"   ",
"   ",
"   ",
"   ",
"   ",
"   ",
"   ",
"   ",
"   ",
"   ",
"   ",
"   ",
"   ",
"   ",
"   ",
"   ",
"   ",
"   ",
"   ",
"   ",
"   ",
"   ",
"   ",
"   ",
"   ",
"   ",
"   ",
"   ",
"   ",
"...",
"+++"};
