/* XPM */
static char * titleAB_xpm[] = {
"3 34 14 1",
" 	c #E0E0E0",
".	c #DFDFDF",
"+	c #DEDEDE",
"@	c #DDDDDD",
"#	c #DCDCDC",
"$	c #DBDBDB",
"%	c #DADADA",
"&	c #D9D9D9",
"*	c #D8D8D8",
"=	c #D7D7D7",
"-	c #D6D6D6",
";	c #D5D5D5",
">	c #D2D2D2",
",	c #AAAAAA",
"   ",
"   ",
"   ",
"...",
"...",
"+++",
"+++",
"+++",
"@@@",
"@@@",
"###",
"###",
"###",
"$$$",
"$$$",
"%%%",
"%%%",
"%%%",
"%%%",
"&&&",
"&&&",
"&&&",
"&&&",
"&&&",
"***",
"***",
"===",
"===",
"===",
"---",
"---",
";;;",
">>>",
",,,"};
