/* XPM */
static char * closeA_xpm[] = {
"30 68 42 1",
" 	c #525252",
".	c #515151",
"+	c #494949",
"@	c #3A3A3A",
"#	c #373737",
"$	c #545454",
"%	c #5D5D5D",
"&	c #565656",
"*	c #505050",
"=	c #363636",
"-	c #535353",
";	c #353535",
">	c #4F4F4F",
",	c #343434",
"'	c #919191",
")	c #D2D2D2",
"!	c #F3F3F3",
"~	c #4E4E4E",
"{	c #333333",
"]	c #4D4D4D",
"^	c #595959",
"/	c #323232",
"(	c #8F8F8F",
"_	c #D1D1D1",
":	c #4C4C4C",
"<	c #313131",
"[	c #4B4B4B",
"}	c #303030",
"|	c #4A4A4A",
"1	c #2F2F2F",
"2	c #424242",
"3	c #484848",
"4	c #3F3F3F",
"5	c #2E2E2E",
"6	c #454545",
"7	c #444444",
"8	c #2C2C2C",
"9	c #474747",
"0	c #404040",
"a	c #8D8D8D",
"b	c #434343",
"c	c #5B5B5B",
"                              ",
"                              ",
"                              ",
"..............................",
"...+@####################@+...",
"...@$%%%%%%%%%%%%%%%%%%%%$@...",
"...#&$$$$$$$$$$$$$$$$$$$$&#...",
"***=----------------------=***",
"***=----------------------=***",
"***;                      ;***",
">>>;                      ;>>>",
">>>;......................;>>>",
">>>,*******')****)'*******,>>>",
">>>,*******)!)**)!)*******,>>>",
"~~~{>>>>>>>>)!))!)>>>>>>>>{~~~",
"~~~{>>>>>>>>>)!!)>>>>>>>>>{~~~",
"~~~{>>>>>>>>>)!!)>>>>>>>>>{~~~",
"~~~{>>>>>>>>)!))!)>>>>>>>>{~~~",
"]]]{~~~~~~~)!)^^)!)~~~~~~~{]]]",
"]]]/]]]]]]](_^]]^_(]]]]]]]/]]]",
"]]]/]]]]]]]^^]]]]^^]]]]]]]/]]]",
":::/]]]]]]]]]]]]]]]]]]]]]]/:::",
":::<[[[[[[[[[[[[[[[[[[[[[[<:::",
":::<[[[[[[[[[[[[[[[[[[[[[[<:::",
":::}||||||||||||||||||||||}:::",
"[[[1++++++++++++++++++++++1[[[",
"[[[<2333333333333333333332<[[[",
"[[[4<55555555555555555555<4[[[",
"[[[+6777777777777777777776+[[[",
"||||||||||||||||||||||||||||||",
"||||||||||||||||||||||||||||||",
"||||||||||||||||||||||||||||||",
"++++++++++++++++++++++++++++++",
"888888888888888888888888888888",
"                              ",
"                              ",
"                              ",
"..............................",
"...9,<<<<<<<<<<<<<<<<<<<<,9...",
"...,0777777777777777777770,...",
"...<9999999999999999999999<...",
"***}3++++++++++++++++++++3}***",
"***}||||||||||||||||||||||}***",
"***<[[[[[[[[[[[[[[[[[[[[[[<***",
">>><[[[[[[[[[[[[[[[[[[[[[[<>>>",
">>>}||||||||||||||||||||||}>>>",
">>>}|||||||a_||||_a|||||||}>>>",
">>><[[[[[[[_!_[[_!_[[[[[[[<>>>",
"~~~}||||||||_!__!_||||||||}~~~",
"~~~}|||||||||_!!_|||||||||}~~~",
"~~~}|||||||||_!!_|||||||||}~~~",
"~~~}||||||||_!__!_||||||||}~~~",
"]]]}|||||||_!_^^_!_|||||||}]]]",
"]]]}|||||||a_^||^_a|||||||}]]]",
"]]]}|||||||^^||||^^|||||||}]]]",
":::}||||||||||||||||||||||}:::",
":::}++++++++++++++++++++++}:::",
":::}||||||||||||||||||||||}:::",
":::}||||||||||||||||||||||}:::",
"[[[1++++++++++++++++++++++1[[[",
"[[[;b++++++++++++++++++++b;[[[",
"[[[~;}}}}}}}}}}}}}}}}}}}};>[[[",
"[[[*c%%%%%%%%%%%%%%%%%%%%c*[[[",
"||||||||||||||||||||||||||||||",
"||||||||||||||||||||||||||||||",
"||||||||||||||||||||||||||||||",
"++++++++++++++++++++++++++++++",
"888888888888888888888888888888"};
