/* XPM */
static char * dframeATR_xpm[] = {
"5 35 9 1",
" 	c None",
".	c #000000",
"+	c #545454",
"@	c #535353",
"#	c #525252",
"$	c #515151",
"%	c #505050",
"&	c #4F4F4F",
"*	c #474747",
".... ",
"+++..",
"@@@@.",
"@@@@.",
"@@@@.",
"@@@@.",
"@@@@.",
"@@@@.",
"@@@@.",
"####.",
"####.",
"####.",
"####.",
"####.",
"####.",
"####.",
"####.",
"$$$$.",
"$$$$.",
"$$$$.",
"$$$$.",
"$$$$.",
"$$$$.",
"%%%%.",
"%%%%.",
"%%%%.",
"%%%%.",
"%%%%.",
"%%%%.",
"%%%%.",
"%%%%.",
"&&&&.",
"&&&&.",
"&&&&.",
"****."};
