/* XPM */
static char * menuButtonI_xpm[] = {
"30 68 51 1",
" 	c #555555",
".	c #4C4C4C",
"+	c #3A3A3A",
"@	c #373737",
"#	c #3B3B3B",
"$	c #4F4F4F",
"%	c #4E4E4E",
"&	c #B9B9B9",
"*	c #BABABA",
"=	c #5A5A5A",
"-	c #4D4D4D",
";	c #545454",
">	c #535353",
",	c #474747",
"'	c #343434",
")	c #313131",
"!	c #404040",
"~	c #444444",
"{	c #303030",
"]	c #484848",
"^	c #494949",
"/	c #525252",
"(	c #4A4A4A",
"_	c #4B4B4B",
":	c #F1F1F1",
"<	c #F3F3F3",
"[	c #565656",
"}	c #515151",
"|	c #2F2F2F",
"1	c #2E2E2E",
"2	c #505050",
"3	c #464646",
"4	c #454545",
"5	c #2D2D2D",
"6	c #2C2C2C",
"7	c #434343",
"8	c #424242",
"9	c #2B2B2B",
"0	c #414141",
"a	c #3F3F3F",
"b	c #3E3E3E",
"c	c #282828",
"d	c #3D3D3D",
"e	c #3C3C3C",
"f	c #363636",
"g	c #272727",
"h	c #262626",
"i	c #252525",
"j	c #292929",
"k	c #5B5B5B",
"l	c #5D5D5D",
"                              ",
"                              ",
"                              ",
"                              ",
"   .+@@@@@@@@@@@@@@@@@@@@#.   ",
"   #$                    %#   ",
"   @                      @   ",
"   @                      @   ",
"   @                      @   ",
"   @                      @   ",
"   @                      @   ",
"   @      &&&&&&&&&&      @   ",
"   @      **********      @   ",
"   @      ==========      @   ",
"   @                      @   ",
"   @      &&&&&&&&&&      @   ",
"   @      **********      @   ",
"   @      ==========      @   ",
"   @                      @   ",
"   @      &&&&&&&&&&      @   ",
"   @      **********      @   ",
"   @      ==========      @   ",
"   @                      @   ",
"   @                      @   ",
"   @                      @   ",
"   @                      @   ",
"   #%                    %#   ",
"   .#@@@@@@@@@@@@@@@@@@@@#-   ",
"                              ",
"                              ",
"                              ",
"                              ",
"                              ",
"++++++++++++++++++++++++++++++",
";;;;;;;;;;;;;;;;;;;;;;;;;;;;;;",
">>>>>>>>>>>>>>>>>>>>>>>>>>>>>>",
">>>>>>>>>>>>>>>>>>>>>>>>>>>>>>",
">>>>>>>>>>>>>>>>>>>>>>>>>>>>>>",
">>>,'))))))))))))))))))))',>>>",
">>>'!~~~~~~~~~~~~~~~~~~~~!'>>>",
">>>),,,,,,,,,,,,,,,,,,,,,,)>>>",
">>>{]^^^^^^^^^^^^^^^^^^^^]{>>>",
"///{(((((((((((((((((((((({///",
"///)______________________)///",
"///)______________________)///",
"///{((((((::::::::::(((((({///",
"///{((((((<<<<<<<<<<(((((({///",
"///)______[[[[[[[[[[______)///",
"///{(((((((((((((((((((((({///",
"///{((((((::::::::::(((((({///",
"}}}{((((((<<<<<<<<<<(((((({}}}",
"}}}{((((((          (((((({}}}",
"}}}{(((^^^^^^^^^^^^^^^^^^^{}}}",
"}}}{^^^^^^::::::::::^^^^^^|}}}",
"}}}|^^^^]]<<<<<<<<<<]]]]]]|}}}",
"}}}|]]]],,//////////,,,,,,1}}}",
"222133344444444444444444445222",
"22213444~~~~~~~~~~~~~~~~~~6222",
"2225~~778888888888888888889222",
"222980!!aabbbbbbbbbbbbbbbbc222",
"222|#abdeeee#############f9222",
"22275cghhhiiiiiiiiiiiiiiijd222",
"2222kllllllllllllllllllllk2222",
"222222222222222222222222222222",
"$$$$$$$$$$$$$$$$$$$$$$$$$$$$$$",
"$$$$$$$$$$$$$$$$$$$$$$$$$$$$$$",
"$$$$$$$$$$$$$$$$$$$$$$$$$$$$$$",
"++++++++++++++++++++++++++++++"};
