/* XPM */
static char * menuButtonA_xpm[] = {
"30 68 54 1",
" 	c #525252",
".	c #515151",
"+	c #494949",
"@	c #3A3A3A",
"#	c #373737",
"$	c #545454",
"%	c #5D5D5D",
"&	c #565656",
"*	c #505050",
"=	c #363636",
"-	c #535353",
";	c #353535",
">	c #4F4F4F",
",	c #F1F1F1",
"'	c #343434",
")	c #F3F3F3",
"!	c #5A5A5A",
"~	c #4E4E4E",
"{	c #333333",
"]	c #595959",
"^	c #4D4D4D",
"/	c #323232",
"(	c #4C4C4C",
"_	c #575757",
":	c #313131",
"<	c #4B4B4B",
"[	c #303030",
"}	c #4A4A4A",
"|	c #2F2F2F",
"1	c #424242",
"2	c #484848",
"3	c #3F3F3F",
"4	c #2E2E2E",
"5	c #454545",
"6	c #444444",
"7	c #2C2C2C",
"8	c #474747",
"9	c #404040",
"0	c #555555",
"a	c #464646",
"b	c #2D2D2D",
"c	c #434343",
"d	c #2B2B2B",
"e	c #414141",
"f	c #3E3E3E",
"g	c #282828",
"h	c #3B3B3B",
"i	c #3D3D3D",
"j	c #3C3C3C",
"k	c #272727",
"l	c #262626",
"m	c #252525",
"n	c #292929",
"o	c #5B5B5B",
"                              ",
"                              ",
"                              ",
"..............................",
"...+@####################@+...",
"...@$%%%%%%%%%%%%%%%%%%%%$@...",
"...#&$$$$$$$$$$$$$$$$$$$$&#...",
"***=----------------------=***",
"***=----------------------=***",
"***;                      ;***",
">>>;                      ;>>>",
">>>;......,,,,,,,,,,......;>>>",
">>>'******))))))))))******'>>>",
">>>'******!!!!!!!!!!******'>>>",
"~~~{>>>>>>>>>>>>>>>>>>>>>>{~~~",
"~~~{>>>>>>,,,,,,,,,,>>>>>>{~~~",
"~~~{>>>>>>))))))))))>>>>>>{~~~",
"~~~{>>>>>>]]]]]]]]]]>>>>>>{~~~",
"^^^{~~~~~~~~~~~~~~~~~~~~~~{^^^",
"^^^/^^^^^^,,,,,,,,,,^^^^^^/^^^",
"^^^/^^^^^^))))))))))^^^^^^/^^^",
"(((/^^^^^^__________^^^^^^/(((",
"(((:<<<<<<<<<<<<<<<<<<<<<<:(((",
"(((:<<<<<<<<<<<<<<<<<<<<<<:(((",
"((([}}}}}}}}}}}}}}}}}}}}}}[(((",
"<<<|++++++++++++++++++++++|<<<",
"<<<:1222222222222222222221:<<<",
"<<<3:44444444444444444444:3<<<",
"<<<+5666666666666666666665+<<<",
"}}}}}}}}}}}}}}}}}}}}}}}}}}}}}}",
"}}}}}}}}}}}}}}}}}}}}}}}}}}}}}}",
"}}}}}}}}}}}}}}}}}}}}}}}}}}}}}}",
"++++++++++++++++++++++++++++++",
"777777777777777777777777777777",
"                              ",
"                              ",
"                              ",
"..............................",
"...8'::::::::::::::::::::'8...",
"...'9666666666666666666669'...",
"...:8888888888888888888888:...",
"***[2++++++++++++++++++++2[***",
"***[}}}}}}}}}}}}}}}}}}}}}}[***",
"***:<<<<<<<<<<<<<<<<<<<<<<:***",
">>>:<<<<<<<<<<<<<<<<<<<<<<:>>>",
">>>[}}}}}},,,,,,,,,,}}}}}}[>>>",
">>>[}}}}}}))))))))))}}}}}}[>>>",
">>>:<<<<<<&&&&&&&&&&<<<<<<:>>>",
"~~~[}}}}}}}}}}}}}}}}}}}}}}[~~~",
"~~~[}}}}}},,,,,,,,,,}}}}}}[~~~",
"~~~[}}}}}}))))))))))}}}}}}[~~~",
"~~~[}}}}}}0000000000}}}}}}[~~~",
"^^^[}}}+++++++++++++++++++[^^^",
"^^^[++++++,,,,,,,,,,++++++|^^^",
"^^^|++++22))))))))))222222|^^^",
"(((|222288          8888884(((",
"(((4aaa5555555555555555555b(((",
"(((4a5556666666666666666667(((",
"(((b66cc111111111111111111d(((",
"<<<d1e9933ffffffffffffffffg<<<",
"<<<|h3fijjjjhhhhhhhhhhhhh=d<<<",
"<<<cbgklllmmmmmmmmmmmmmmmni<<<",
"<<<*o%%%%%%%%%%%%%%%%%%%%o*<<<",
"}}}}}}}}}}}}}}}}}}}}}}}}}}}}}}",
"}}}}}}}}}}}}}}}}}}}}}}}}}}}}}}",
"}}}}}}}}}}}}}}}}}}}}}}}}}}}}}}",
"++++++++++++++++++++++++++++++",
"777777777777777777777777777777"};
