/* XPM */
static char * titleAQ_xpm[] = {
"3 34 11 1",
" 	c #525252",
".	c #515151",
"+	c #505050",
"@	c #4F4F4F",
"#	c #4E4E4E",
"$	c #4D4D4D",
"%	c #4C4C4C",
"&	c #4B4B4B",
"*	c #4A4A4A",
"=	c #474747",
"-	c #2F2F2F",
"   ",
"   ",
"   ",
"...",
"...",
"...",
"...",
"+++",
"+++",
"+++",
"@@@",
"@@@",
"@@@",
"@@@",
"###",
"###",
"###",
"###",
"$$$",
"$$$",
"$$$",
"%%%",
"%%%",
"%%%",
"%%%",
"&&&",
"&&&",
"&&&",
"&&&",
"***",
"***",
"***",
"===",
"---"};
